<svg id="visual" viewBox="0 0 900 600" width="900" height="600" xmlns="http://www.w3.org/2000/svg" xmlns:xlink="http://www.w3.org/1999/xlink" version="1.1"><rect x="0" y="0" width="900" height="600" fill="#ffff"></rect><path d="M0 129L21.5 137.8C43 146.7 86 164.3 128.8 168.5C171.7 172.7 214.3 163.3 257.2 149.7C300 136 343 118 385.8 120C428.7 122 471.3 144 514.2 153.5C557 163 600 160 642.8 159.2C685.7 158.3 728.3 159.7 771.2 164.7C814 169.7 857 178.3 878.5 182.7L900 187L900 0L878.5 0C857 0 814 0 771.2 0C728.3 0 685.7 0 642.8 0C600 0 557 0 514.2 0C471.3 0 428.7 0 385.8 0C343 0 300 0 257.2 0C214.3 0 171.7 0 128.8 0C86 0 43 0 21.5 0L0 0Z" fill="#0066FF" stroke-linecap="round" stroke-linejoin="miter"></path></svg>